<?xml version="1.0" encoding="UTF-8"?>
<svg width="60px" height="60px" viewBox="0 0 60 60" version="1.1" xmlns="http://www.w3.org/2000/svg" xmlns:xlink="http://www.w3.org/1999/xlink">
    <title>tscolorwheel_appicon</title>
    <g id="tscolorwheel_appicon" stroke="none" stroke-width="1" fill="none" fill-rule="evenodd">
        <circle id="Oval" fill="" cx="30" cy="30" r="30"></circle>
        <rect id="Rectangle" fill="#000000" x="5.77840909" y="6.2109375" width="48.4431818" height="47.578125" rx="23.7890625"></rect>
        <path d="M36.7360665,25.4032962 C37.9071197,25.4032962 38.951052,25.6113122 39.8678634,26.0273443 C40.7846748,26.4433763 41.5011745,27.0250508 42.0173624,27.7723676 C42.5335503,28.5196845 42.7916443,29.3864179 42.7916443,30.372568 L42.7916443,30.372568 L42.7916443,30.7192614 C42.7916443,30.7963044 42.7646793,30.8617909 42.7107492,30.915721 C42.6568191,30.9696511 42.5913326,30.9966161 42.5142896,30.9966161 L42.5142896,30.9966161 L39.856307,30.9966161 C39.779264,30.9966161 39.7137775,30.9696511 39.6598474,30.915721 C39.6059173,30.8617909 39.5789523,30.7963044 39.5789523,30.7192614 L39.5789523,30.7192614 L39.5789523,30.5343583 C39.5789523,29.8871973 39.313154,29.33634 38.7815575,28.8817865 C38.249961,28.4272329 37.5219049,28.1999561 36.5973892,28.1999561 C35.8731852,28.1999561 35.3069194,28.3540421 34.8985916,28.662214 C34.4902639,28.9703859 34.2861,29.3941222 34.2861,29.9334231 C34.2861,30.3186379 34.4055166,30.6422184 34.6443498,30.9041645 C34.883183,31.1661106 35.2375807,31.4010917 35.7075428,31.6091077 C36.177505,31.8171238 36.9055611,32.0983306 37.8917112,32.4527283 C38.9857214,32.8533518 39.8447505,33.2077495 40.4687986,33.5159213 C41.0928467,33.8240932 41.6552604,34.2824989 42.1560398,34.8911384 C42.6568191,35.4997779 42.9072088,36.2894684 42.9072088,37.2602099 C42.9072088,38.7086178 42.3756122,39.852706 41.3124192,40.6924744 C40.2492262,41.5322428 38.8085225,41.952127 36.9903084,41.952127 C35.7576208,41.952127 34.6790191,41.7556674 33.7545034,41.3627482 C32.8299878,40.9698291 32.1173403,40.4074154 31.6165609,39.6755071 C31.1157816,38.9435989 30.8653919,38.092274 30.8653919,37.1215325 L30.8653919,37.1215325 L30.8653919,36.6130489 C30.8653919,36.5360059 30.892357,36.4705194 30.946287,36.4165893 C31.0002171,36.3626592 31.0657037,36.3356942 31.1427466,36.3356942 L31.1427466,36.3356942 L33.7776163,36.3356942 C33.8546593,36.3356942 33.9201458,36.3626592 33.9740759,36.4165893 C34.028006,36.4705194 34.054971,36.5360059 34.054971,36.6130489 L34.054971,36.6130489 L34.054971,36.9597423 C34.054971,37.5760861 34.3400301,38.0961262 34.9101481,38.5198625 C35.4802661,38.9435989 36.2506958,39.155467 37.2214373,39.155467 C38.0380928,39.155467 38.6467323,38.9821204 39.0473558,38.635427 C39.4479792,38.2887336 39.648291,37.8611451 39.648291,37.3526615 C39.648291,36.9828552 39.5250222,36.6708311 39.2784847,36.4165893 C39.0319472,36.1623475 38.6968102,35.9389229 38.2730739,35.7463154 C37.8493375,35.553708 37.1752115,35.2879097 36.2506958,34.9489207 C35.21832,34.594523 34.3438822,34.232421 33.6273825,33.8626147 C32.9108829,33.4928085 32.3099477,32.988177 31.8245769,32.3487203 C31.3392062,31.7092636 31.0965208,30.9195731 31.0965208,29.9796488 C31.0965208,29.0551332 31.3353541,28.2461819 31.8130205,27.5527952 C32.2906869,26.8594084 32.9532565,26.3278119 33.8007292,25.9580056 C34.6482019,25.5881993 35.6266477,25.4032962 36.7360665,25.4032962 Z M42.5064742,18.515625 C42.6185509,18.515625 42.7138162,18.5548519 42.7922699,18.6333056 C42.8707236,18.7117593 42.9099504,18.8070245 42.9099504,18.9191013 L42.9099504,18.9191013 L42.9099504,22.2141573 C42.9099504,22.3262341 42.8707236,22.4214993 42.7922699,22.499953 C42.7138162,22.5784067 42.6185509,22.6176336 42.5064742,22.6176336 L42.5064742,22.6176336 L26.1700496,22.617625 L26.624823,26.7902025 C27.7198473,27.0952997 28.5054996,28.1185276 28.4640769,29.304718 L28.356313,32.3906721 C28.3196998,33.439138 27.6473749,34.3155225 26.722714,34.6623219 L25.6712771,40.9028502 C25.5649606,41.5338636 25.0023831,41.9848661 24.3633529,41.951376 L24.1402591,41.9396841 C23.5424477,41.9083542 23.0492846,41.4605706 22.960572,40.8685486 L22.0222043,34.6063715 C20.9546297,34.2836473 20.1946227,33.2742544 20.2353812,32.1070829 L20.3431451,29.0211288 C20.3797583,27.9726629 21.0520832,27.0962785 21.9767441,26.749479 L22.3580496,22.617625 L17.4935258,22.6176336 C17.4094683,22.6176336 17.3348672,22.5955685 17.2697226,22.5514383 L17.2077301,22.499953 C17.1292764,22.4214993 17.0900496,22.3262341 17.0900496,22.2141573 L17.0900496,22.2141573 L17.0900496,18.9191013 C17.0900496,18.8070245 17.1292764,18.7117593 17.2077301,18.6333056 C17.2861838,18.5548519 17.3814491,18.515625 17.4935258,18.515625 L17.4935258,18.515625 Z M23.2554723,27.8071665 C22.3566468,27.7757788 21.598174,28.456716 21.5235171,29.3431903 L21.5185379,29.426884 L21.4351066,31.8160458 C21.4037189,32.7148713 22.084656,33.4733441 22.9711304,33.548001 L23.054824,33.5529801 L25.4439858,33.6364115 C26.3428113,33.6677991 27.1012841,32.986862 27.175941,32.1003877 L27.1809202,32.016694 L27.2643515,29.6275322 C27.2957392,28.7287067 26.6148021,27.9702339 25.7283277,27.895577 L25.6446341,27.8905979 L23.2554723,27.8071665 Z" id="Combined-Shape" fill="#FFFFFF" fill-rule="nonzero"></path>
    </g>
</svg>